<svg xmlns="http://www.w3.org/2000/svg" viewBox="0 0 512 512">
  <rect width="512" height="512" rx="112" fill="#1e1b4b"/>
  <rect width="512" height="512" rx="112" fill="url(#g)"/>
  <defs>
    <linearGradient id="g" x1="0" y1="0" x2="512" y2="512" gradientUnits="userSpaceOnUse">
      <stop offset="0%" stop-color="#6366f1"/>
      <stop offset="100%" stop-color="#7c3aed"/>
    </linearGradient>
  </defs>
  <!-- Book body -->
  <rect x="136" y="130" width="240" height="280" rx="16" fill="white" opacity="0.15"/>
  <rect x="148" y="142" width="216" height="256" rx="12" fill="white" opacity="0.12"/>
  <!-- Spine -->
  <rect x="148" y="142" width="28" height="256" rx="6" fill="white" opacity="0.25"/>
  <!-- Lines representing text -->
  <rect x="196" y="186" width="148" height="12" rx="6" fill="white" opacity="0.70"/>
  <rect x="196" y="214" width="120" height="10" rx="5" fill="white" opacity="0.45"/>
  <rect x="196" y="240" width="140" height="10" rx="5" fill="white" opacity="0.45"/>
  <rect x="196" y="266" width="108" height="10" rx="5" fill="white" opacity="0.45"/>
  <rect x="196" y="300" width="148" height="10" rx="5" fill="white" opacity="0.35"/>
  <rect x="196" y="322" width="128" height="10" rx="5" fill="white" opacity="0.35"/>
  <!-- Zap / sparkle accent -->
  <path d="M300 340 L282 374 L298 374 L278 410 L322 368 L304 368 Z" fill="#a5b4fc" opacity="0.90"/>
</svg>
